<?xml version="1.0" encoding="utf-8"?>
<!-- Generator: Adobe Illustrator 28.3.0, SVG Export Plug-In . SVG Version: 6.00 Build 0)  -->
<svg version="1.1" id="Capa_1" xmlns="http://www.w3.org/2000/svg" xmlns:xlink="http://www.w3.org/1999/xlink" x="0px" y="0px"
	 viewBox="0 0 1080 1080" style="enable-background:new 0 0 1080 1080;" xml:space="preserve">
<style type="text/css">
	.st0{fill:#0050A0;stroke:#000000;stroke-miterlimit:10;}
	.st1{fill:#FFFFFF;}
</style>
<rect x="0" y="0" class="st0" width="1080" height="1080"/>
<g>
	<g>
		<path class="st1" d="M361,202.6h-1L303.5,233l-8.4-33.4l71-37.9h37.3v325H361V202.6z"/>
		<path class="st1" d="M715.8,198.6H592.1l-12.5,83.5c7.4-1,14.4-1.8,26.4-1.8c25.3,0,49.9,5.5,70.1,17.6
			c25.2,14.1,46.3,42.5,46.3,83.4c0,63.4-50.4,110.8-120.9,110.8c-35.7,0-65.4-10-81.1-20l11.2-33.6c13.3,8,39.9,18.3,69.6,18.3
			c41.1,0,77-27.3,76.7-70.9c-0.3-41.8-28.4-71.5-93.2-71.5c-18.9,0-33.2,1.6-45.2,3.3l21-156h155.3V198.6z"/>
		<path class="st1" d="M537.7,871.6c-19.5,7.4-58.2,18.5-103.6,18.5c-51.1,0-93.2-12.9-126-44.5c-29-28-46.9-72.7-46.9-125.1
			c0.2-100.5,69.3-174.1,182.2-174.1c38.9,0,69.8,8.6,84.3,15.5l-10.9,35.5c-18-8.2-40.4-14.4-74.4-14.4
			c-81.8,0-135.4,50.9-135.4,135.3c0,85.4,51.2,136,130.1,136c28.5,0,47.8-4,57.8-9.1V744.7h-68.2v-34.8h111V871.6z"/>
		<path class="st1" d="M603.9,554.4c19.2-4.2,49.3-7.2,79.5-7.2c43.7,0,71.6,7.4,92.5,24.5c17.4,13.2,28.2,33.3,28.2,59.7
			c0,32.6-21.7,61.2-57,73.8v1.3c32.1,7.7,69.6,34.1,69.6,84.5c0,28.8-11.4,51-28.8,67.1c-23.2,21.8-61.1,31.6-116.3,31.6
			c-30.2,0-53-2.1-67.6-3.8V554.4z M647.3,692.4h39.9c45.6,0,72.5-24.2,72.5-56.9c0-39.1-29.6-54.9-73.7-54.9
			c-20.2,0-31.7,1.5-38.8,3.1V692.4z M647.3,853.6c8.9,1.8,20.9,2.2,36.7,2.2c45.2,0,86.7-16.5,86.7-65.6c0-45.8-39.7-65-87.2-65.1
			h-36.2V853.6z"/>
	</g>
</g>
</svg>
